<?xml version="1.0" encoding="UTF-8"?>
<!DOCTYPE svg PUBLIC "-//W3C//DTD SVG 1.1//EN" "http://www.w3.org/Graphics/SVG/1.1/DTD/svg11.dtd">
<svg xmlns="http://www.w3.org/2000/svg" version="1.1" width="144px" height="117px" style="shape-rendering:geometricPrecision; text-rendering:geometricPrecision; image-rendering:optimizeQuality; fill-rule:evenodd; clip-rule:evenodd" xmlns:xlink="http://www.w3.org/1999/xlink">
<g><path style="opacity:1" fill="#ff9c59" d="M 62.5,-0.5 C 63.1667,-0.5 63.8333,-0.5 64.5,-0.5C 62.8557,2.00447 61.3557,4.67113 60,7.5C 58.6074,12.9489 59.7741,17.6155 63.5,21.5C 63.8333,22.5 64.5,23.1667 65.5,23.5C 67.8333,24.8333 70.1667,24.8333 72.5,23.5C 73.7095,23.0679 74.7095,22.4013 75.5,21.5C 81.1497,13.6882 80.483,6.35491 73.5,-0.5C 74.5,-0.5 75.5,-0.5 76.5,-0.5C 79.4069,3.40931 81.4069,7.74264 82.5,12.5C 81.7169,16.2809 80.0503,19.6142 77.5,22.5C 80.75,24.6116 83.75,26.9449 86.5,29.5C 85.5084,29.3284 84.8417,29.6618 84.5,30.5C 81.7111,27.9337 78.7111,25.6004 75.5,23.5C 74.354,24.1449 73.354,24.9783 72.5,26C 79.0128,28.681 83.6795,33.181 86.5,39.5C 84.8958,40.287 84.2291,41.6203 84.5,43.5C 82.0097,35.5047 76.843,29.838 69,26.5C 57.8411,32.4821 52.6745,41.8154 53.5,54.5C 52.6787,51.3586 52.1787,48.0252 52,44.5C 51.6667,44.1667 51.3333,43.8333 51,43.5C 50.7216,44.4158 50.2216,45.0825 49.5,45.5C 52.1154,36.3818 57.7821,29.8818 66.5,26C 65.4214,25.044 64.2547,24.2106 63,23.5C 59.6675,26.0017 56.5008,28.6684 53.5,31.5C 53.1583,30.6618 52.4916,30.3284 51.5,30.5C 54.5762,27.4475 57.9095,24.6142 61.5,22C 54.761,14.2893 55.0943,6.78932 62.5,-0.5 Z M 67.5,5.5 C 71.8865,5.38469 74.2199,7.55135 74.5,12C 70.8005,20.6578 67.4672,20.4911 64.5,11.5C 64.4672,8.89835 65.4672,6.89835 67.5,5.5 Z M 72.5,23.5 C 70.1667,24.8333 67.8333,24.8333 65.5,23.5C 67.8333,19.5 70.1667,19.5 72.5,23.5 Z"/></g>
<g><path style="opacity:0.179" fill="#febb8c" d="M 75.5,21.5 C 74.7095,22.4013 73.7095,23.0679 72.5,23.5C 70.1667,19.5 67.8333,19.5 65.5,23.5C 64.5,23.1667 63.8333,22.5 63.5,21.5C 67.1761,19.6882 67.0094,17.6882 63,15.5C 60.9103,9.29087 62.9103,5.29087 69,3.5C 74.2785,4.71199 76.6118,8.04532 76,13.5C 75.3147,16.0573 73.8147,17.8906 71.5,19C 72.6934,20.0946 74.0267,20.928 75.5,21.5 Z M 67.5,5.5 C 65.4672,6.89835 64.4672,8.89835 64.5,11.5C 67.4672,20.4911 70.8005,20.6578 74.5,12C 74.2199,7.55135 71.8865,5.38469 67.5,5.5 Z"/></g>
<g><path style="opacity:1" fill="#ff8d3f" d="M 86.5,29.5 C 92.1552,33.4804 95.8218,38.8137 97.5,45.5C 100.521,44.9951 103.521,44.3284 106.5,43.5C 115.831,57.2729 114.164,69.7729 101.5,81C 105.75,81.7394 109.75,82.9061 113.5,84.5C 114.6,85.5585 115.934,86.3918 117.5,87C 116.437,88.1882 115.103,88.6882 113.5,88.5C 101.41,85.4697 89.7431,86.6364 78.5,92C 77.2695,93.4048 75.9361,94.5714 74.5,95.5C 73.6618,95.1583 73.3284,94.4916 73.5,93.5C 88.0466,80.3947 94.2133,64.0614 92,44.5C 90.2654,39.3606 87.7654,34.694 84.5,30.5C 84.8417,29.6618 85.5084,29.3284 86.5,29.5 Z"/></g>
<g><path style="opacity:1" fill="#ff8d3e" d="M 51.5,30.5 C 52.4916,30.3284 53.1583,30.6618 53.5,31.5C 43.1092,46.8737 42.9426,62.5404 53,78.5C 54.9789,82.3003 57.4789,85.6336 60.5,88.5C 60.5,89.8333 59.8333,90.5 58.5,90.5C 48.7433,87.0303 38.7433,86.0303 28.5,87.5C 27.1266,87.6567 25.7932,87.49 24.5,87C 23.4019,86.2303 23.4019,85.397 24.5,84.5C 28.4104,83.1482 32.4104,81.9816 36.5,81C 23.9091,69.5649 22.4091,57.0649 32,43.5C 34.5238,44.1043 37.0238,44.771 39.5,45.5C 42.0652,39.2769 46.0652,34.2769 51.5,30.5 Z"/></g>
<g><path style="opacity:1" fill="#ff893a" d="M 53.5,54.5 C 54.2653,57.0961 54.5987,59.7628 54.5,62.5C 54.3573,64.2624 54.6906,65.9291 55.5,67.5C 54.8671,69.5193 53.8671,69.8526 52.5,68.5C 51.2264,66.0075 50.5597,63.3408 50.5,60.5C 50.2491,55.4932 49.9157,50.4932 49.5,45.5C 50.2216,45.0825 50.7216,44.4158 51,43.5C 51.3333,43.8333 51.6667,44.1667 52,44.5C 52.1787,48.0252 52.6787,51.3586 53.5,54.5 Z"/></g>
<g><path style="opacity:1" fill="#fe822c" d="M 86.5,39.5 C 87.3382,39.8417 87.6716,40.5084 87.5,41.5C 88.3973,46.1398 88.5639,50.8065 88,55.5C 87.1583,51.2822 85.9917,47.2822 84.5,43.5C 84.2291,41.6203 84.8958,40.287 86.5,39.5 Z"/></g>
<g><path style="opacity:0.998" fill="#ffae76" d="M 49.5,45.5 C 49.9157,50.4932 50.2491,55.4932 50.5,60.5C 48.5069,55.579 48.1736,50.579 49.5,45.5 Z"/></g>
<g><path style="opacity:1" fill="#ff954d" d="M 87.5,41.5 C 89.0531,44.017 90.0531,46.8503 90.5,50C 89.7036,55.5718 88.5369,61.0718 87,66.5C 82.9293,75.6462 78.096,84.3129 72.5,92.5C 71.6618,92.1583 71.3284,91.4916 71.5,90.5C 75.5729,82.0137 79.4062,73.3471 83,64.5C 84.879,57.5417 85.379,50.5417 84.5,43.5C 85.9917,47.2822 87.1583,51.2822 88,55.5C 88.5639,50.8065 88.3973,46.1398 87.5,41.5 Z"/></g>
<g><path style="opacity:1" fill="#ff9751" d="M 54.5,62.5 C 58.5439,72.2577 62.8772,81.9244 67.5,91.5C 67.6716,92.4916 67.3382,93.1583 66.5,93.5C 66.5,92.8333 66.1667,92.5 65.5,92.5C 61.1667,84.5 56.8333,76.5 52.5,68.5C 53.8671,69.8526 54.8671,69.5193 55.5,67.5C 54.6906,65.9291 54.3573,64.2624 54.5,62.5 Z"/></g>
<g><path style="opacity:1" fill="#ff9853" d="M 113.5,84.5 C 121.489,87.4933 129.489,90.4933 137.5,93.5C 137.5,94.1667 137.5,94.8333 137.5,95.5C 134.912,97.5918 131.912,98.9251 128.5,99.5C 125.877,97.7345 122.877,97.0679 119.5,97.5C 123.264,96.1682 127.264,95.3349 131.5,95C 125.429,92.7014 119.429,90.5347 113.5,88.5C 115.103,88.6882 116.437,88.1882 117.5,87C 115.934,86.3918 114.6,85.5585 113.5,84.5 Z"/></g>
<g><path style="opacity:0.016" fill="#fdcfae" d="M 137.5,93.5 C 140.167,94.1667 140.167,94.8333 137.5,95.5C 137.5,94.8333 137.5,94.1667 137.5,93.5 Z"/></g>
<g><path style="opacity:0.271" fill="#ffbf94" d="M 71.5,90.5 C 71.3284,91.4916 71.6618,92.1583 72.5,92.5C 72.5,92.8333 72.5,93.1667 72.5,93.5C 71.6618,93.8417 71.3284,94.5084 71.5,95.5C 70.1667,95.8333 70.1667,96.1667 71.5,96.5C 69.4742,100.36 67.8075,100.026 66.5,95.5C 67.8333,95.1667 67.8333,94.8333 66.5,94.5C 66.5,94.1667 66.5,93.8333 66.5,93.5C 67.3382,93.1583 67.6716,92.4916 67.5,91.5C 68.29,92.6085 68.79,93.9419 69,95.5C 69.7568,93.6854 70.5902,92.0188 71.5,90.5 Z"/></g>
<g><path style="opacity:0.999" fill="#ff9043" d="M 24.5,84.5 C 23.4019,85.397 23.4019,86.2303 24.5,87C 25.7932,87.49 27.1266,87.6567 28.5,87.5C 21.3126,90.0633 13.9792,92.5633 6.5,95C 14.0385,95.7743 21.3718,97.441 28.5,100C 36.272,103.969 44.1053,107.803 52,111.5C 53.7659,110.767 55.5992,110.433 57.5,110.5C 58.8333,110.5 59.5,111.167 59.5,112.5C 57.262,114.116 54.9287,115.449 52.5,116.5C 51.1667,116.5 49.8333,116.5 48.5,116.5C 32.1142,109.812 15.7809,102.812 -0.5,95.5C -0.5,94.8333 -0.5,94.1667 -0.5,93.5C 7.91513,90.7955 16.2485,87.7955 24.5,84.5 Z"/></g>
<g><path style="opacity:1" fill="#ff8f42" d="M 119.5,97.5 C 122.877,97.0679 125.877,97.7345 128.5,99.5C 116.07,105.716 103.403,111.382 90.5,116.5C 88.8333,116.5 87.1667,116.5 85.5,116.5C 82.9906,115.079 80.6572,113.412 78.5,111.5C 79.209,110.596 80.209,110.263 81.5,110.5C 84.9,111.986 88.2333,111.82 91.5,110C 99.994,103.919 109.327,99.7523 119.5,97.5 Z"/></g>
<g><path style="opacity:0.8" fill="#ff9d5b" d="M 60.5,88.5 C 62.1667,89.8333 63.8333,91.1667 65.5,92.5C 65.3284,93.4916 65.6618,94.1583 66.5,94.5C 66.5,94.8333 66.5,95.1667 66.5,95.5C 67.8075,100.026 69.4742,100.36 71.5,96.5C 71.5,96.1667 71.5,95.8333 71.5,95.5C 72.3382,95.1583 72.6716,94.4916 72.5,93.5C 72.8333,93.5 73.1667,93.5 73.5,93.5C 73.3284,94.4916 73.6618,95.1583 74.5,95.5C 71.9432,97.6087 70.7766,100.275 71,103.5C 74.154,106.512 77.654,108.845 81.5,110.5C 80.209,110.263 79.209,110.596 78.5,111.5C 75.2295,109.409 72.0628,107.076 69,104.5C 66.2532,107.754 63.0865,110.42 59.5,112.5C 59.5,111.167 58.8333,110.5 57.5,110.5C 61.6302,108.589 65.2969,105.922 68.5,102.5C 66.2137,97.5539 62.8804,93.5539 58.5,90.5C 59.8333,90.5 60.5,89.8333 60.5,88.5 Z"/></g>
</svg>
